USFL
nRows=112
nColumns=2
inDegrees=yes
endheader
time	soleus_r	
2.57661	 49.505929	
2.64819	 49.501939	
2.71976	 49.496745	
2.79133	 49.512399	
2.8629	 49.490490	
2.93448	 49.516808	
3.00605	 49.458065	
3.07762	 49.332956	
3.14919	 49.330684	
3.22077	 49.322945	
3.29234	 49.294694	
3.36391	 49.265508	
3.43548	 49.279370	
3.50706	 49.260740	
3.57863	 49.280848	
3.6502	 49.349719	
3.72177	 49.461106	
3.79335	 49.486318	
3.86492	 49.450200	
3.93649	 49.425417	
4.00806	 49.408569	
4.07964	 49.394665	
4.15121	 49.375108	
4.22278	 49.395107	
4.29435	 49.334866	
4.36593	 49.295067	
4.4375	 49.253046	
4.50907	 49.231686	
4.58065	 49.082079	
4.65222	 49.077264	
4.72379	 49.065453	
4.79536	 49.096612	
4.86694	 49.123036	
4.93851	 49.160279	
5.01008	 49.237954	
5.08165	 49.058408	
5.15323	 49.009485	
5.2248	 44.251252	
5.29637	 43.279126	
5.36794	 39.690946	
5.43952	 38.929247	
5.51109	 39.348349	
5.58266	 39.459255	
5.65423	 35.595659	
5.72581	 36.336995	
5.79738	 36.410195	
5.86895	 36.501864	
5.94052	 35.665231	
6.0121	 35.920023	
6.08367	 35.802921	
6.15524	 35.793242	
6.22681	 35.922779	
6.29839	 35.847666	
6.36996	 35.321766	
6.44153	 35.359568	
6.5131	 35.317241	
6.58468	 34.969698	
6.65625	 34.957822	
6.72782	 34.926066	
6.7994	 34.724707	
6.87097	 34.653286	
6.94254	 34.996655	
7.01411	 35.014319	
7.08569	 35.148253	
7.15726	 35.598940	
7.22883	 35.277976	
7.3004	 35.278068	
7.37198	 35.298308	
7.44355	 35.620173	
7.51512	 35.640663	
7.58669	 35.761665	
7.65827	 35.554241	
7.72984	 35.593653	
7.80141	 35.250724	
7.87298	 35.375276	
7.94456	 35.327723	
8.01613	 35.342044	
8.0877	 34.750693	
8.15927	 34.829574	
8.23085	 35.558570	
8.30242	 35.854872	
8.37399	 35.820671	
8.44556	 35.979071	
8.51714	 35.662717	
8.58871	 35.687728	
8.66028	 35.825878	
8.73185	 34.512289	
8.80343	 34.609674	
8.875	 34.466204	
8.94657	 33.624945	
9.01815	 33.587703	
9.08972	 34.316745	
9.16129	 34.429127	
9.23286	 34.488728	
9.30444	 34.670902	
9.37601	 34.191409	
9.44758	 34.505893	
9.51915	 34.928306	
9.59073	 33.758238	
9.6623	 34.063880	
9.73387	 33.678281	
9.80544	 33.003511	
9.87702	 32.909953	
9.94859	 33.009894	
10.0202	 28.636878	
10.0917	 28.585943	
10.1633	 30.954099	
10.2349	 30.151811	
10.3065	 29.931499	
10.378	 33.019747	
10.4496	 34.577030	
10.5212	 31.809251	
